<svg width="210" height="38" viewBox="0 0 210 38" fill="none" xmlns="http://www.w3.org/2000/svg">
<path d="M11.048 37.576C7.528 37.576 3.96 37.032 0.344 35.944C0.504 32.776 0.76 29.832 1.112 27.112L4.808 26.392L7.208 30.472C9.128 31.144 10.824 31.48 12.296 31.48C12.808 31.48 13.896 31.336 15.56 31.048C15.624 30.408 15.656 29.976 15.656 29.752C15.656 28.984 15.528 28.408 15.272 28.024C15.016 27.608 14.456 27.16 13.592 26.68C12.728 26.168 11.176 25.416 8.936 24.424C6.184 23.08 4.2 21.64 2.984 20.104C1.768 18.536 1.16 16.696 1.16 14.584C1.16 11.288 2.28 8.712 4.52 6.856C6.76 5 9.832 4.072 13.736 4.072C15.624 4.072 17.496 4.264 19.352 4.648C21.24 5 22.888 5.496 24.296 6.136C24.232 7.928 24.088 10.152 23.864 12.808L23.72 14.872L20.216 15.4L16.568 10.744C15.416 10.392 13.976 10.216 12.248 10.216C11.16 10.216 10.344 10.312 9.8 10.504C9.64 11.144 9.56 11.64 9.56 11.992C9.56 12.696 9.736 13.32 10.088 13.864C10.44 14.376 11.064 14.92 11.96 15.496C12.856 16.04 14.184 16.728 15.944 17.56C18.504 18.776 20.44 19.848 21.752 20.776C23.064 21.704 23.976 22.68 24.488 23.704C25.032 24.696 25.304 25.912 25.304 27.352C25.304 30.52 24.04 33.016 21.512 34.84C18.984 36.664 15.496 37.576 11.048 37.576ZM38.2966 37.624C35.4806 37.624 33.4006 36.936 32.0566 35.56C30.7126 34.152 30.0406 32.024 30.0406 29.176V17.512H26.6806V14.008L35.3206 6.136L38.1046 6.472V11.896H46.1686V17.56H38.1046V27.448C38.1046 28.984 38.3126 30.008 38.7286 30.52C39.1766 31.032 40.0246 31.288 41.2726 31.288C42.3286 31.288 43.8006 31.144 45.6886 30.856L46.2646 35.752C45.1126 36.296 43.8166 36.744 42.3766 37.096C40.9686 37.448 39.6086 37.624 38.2966 37.624ZM55.7694 37.624C53.5934 37.624 51.8494 37.032 50.5374 35.848C49.2254 34.632 48.5694 33.08 48.5694 31.192C48.5694 28.664 49.8334 26.68 52.3614 25.24C54.9214 23.8 58.6334 22.984 63.4974 22.792C63.4974 21.288 63.3694 20.184 63.1134 19.48C62.8894 18.744 62.4574 18.248 61.8174 17.992C61.2094 17.704 60.2654 17.56 58.9854 17.56C57.6734 17.56 56.7454 17.608 56.2014 17.704L54.2334 21.592L50.6814 21.352C50.1374 18.792 49.7534 16.136 49.5294 13.384C51.3214 12.776 53.2734 12.296 55.3854 11.944C57.5294 11.592 59.5294 11.416 61.3854 11.416C64.7774 11.416 67.2094 12.088 68.6814 13.432C70.1534 14.744 70.8894 16.936 70.8894 20.008V30.04C70.8894 30.616 70.9374 31.016 71.0334 31.24C71.1614 31.464 71.4174 31.688 71.8014 31.912L73.7214 33.016L73.5294 35.992C69.8174 36.856 66.8894 37.336 64.7454 37.432C64.6814 37.24 64.5854 36.904 64.4574 36.424C64.3294 35.912 64.2174 35.432 64.1214 34.984C62.8734 35.784 61.4974 36.424 59.9934 36.904C58.5214 37.384 57.1134 37.624 55.7694 37.624ZM58.9854 32.2C60.2654 32.2 61.8174 31.768 63.6414 30.904L63.4494 27.256C62.6814 27.192 62.1694 27.16 61.9134 27.16C61.0494 27.16 60.0414 27.256 58.8894 27.448C57.7374 27.608 56.8254 27.8 56.1534 28.024C56.0574 28.44 56.0094 28.824 56.0094 29.176C56.0094 30.136 56.2654 30.888 56.7774 31.432C57.3214 31.944 58.0574 32.2 58.9854 32.2ZM75.4355 32.44L78.4115 31.576V19.912C78.4115 19.208 78.3635 18.76 78.2675 18.568C78.1715 18.344 77.9155 18.104 77.4995 17.848L75.3875 16.696L75.5315 13.096L76.8275 12.856C80.7635 12.056 83.6755 11.624 85.5635 11.56C85.8195 12.232 86.0275 12.92 86.1875 13.624C87.9155 12.824 89.3875 12.264 90.6035 11.944C91.8515 11.592 92.9875 11.416 94.0115 11.416C95.2595 11.416 96.4275 11.656 97.5155 12.136C98.6035 12.584 99.4195 13.192 99.9635 13.96C101.788 13.064 103.42 12.424 104.86 12.04C106.332 11.624 107.724 11.416 109.036 11.416C111.66 11.416 113.596 12.168 114.844 13.672C116.092 15.176 116.716 17.464 116.716 20.536V29.992C116.716 30.664 116.764 31.112 116.86 31.336C116.956 31.56 117.228 31.8 117.676 32.056L119.98 33.4L119.788 37H106.732L106.492 32.44L108.796 31.768V22.696C108.796 21.32 108.748 20.344 108.652 19.768C108.588 19.16 108.332 18.696 107.884 18.376C107.436 18.024 106.684 17.848 105.628 17.848C104.796 17.848 103.404 17.992 101.452 18.28C101.516 18.792 101.548 19.544 101.548 20.536V29.992C101.548 30.664 101.596 31.112 101.692 31.336C101.788 31.56 102.076 31.8 102.556 32.056L104.908 33.4L104.716 37H91.5635L91.3235 32.44L93.6275 31.768V22.696C93.6275 21.288 93.5795 20.296 93.4835 19.72C93.4195 19.112 93.1635 18.648 92.7155 18.328C92.2675 18.008 91.5315 17.848 90.5075 17.848C89.3875 17.848 88.0275 17.992 86.4275 18.28V29.992C86.4275 30.664 86.4755 31.112 86.5715 31.336C86.6675 31.56 86.9235 31.8 87.3395 32.056L89.6915 33.4L89.4995 37H75.6755L75.4355 32.44ZM121.653 32.584L125.013 31.576V17.512L121.653 17.464V12.76L125.013 12.568V9.448C125.013 6.536 125.861 4.28 127.557 2.68C129.253 1.08 131.717 0.279998 134.949 0.279998C136.613 0.279998 138.629 0.487998 140.997 0.903998L139.893 7.432C138.485 7.048 137.253 6.792 136.197 6.664C135.173 6.504 134.133 6.44 133.077 6.472V12.136L138.549 11.8V17.704L133.077 17.608V29.992C133.077 30.664 133.125 31.112 133.221 31.336C133.317 31.56 133.589 31.8 134.037 32.056L137.013 33.688L136.869 37H121.797L121.653 32.584ZM141.106 32.584L144.466 31.576V17.512L141.106 17.464V12.76L144.466 12.568V9.448C144.466 6.536 145.314 4.28 147.01 2.68C148.706 1.08 151.17 0.279998 154.402 0.279998C156.066 0.279998 158.082 0.487998 160.45 0.903998L159.346 7.432C157.938 7.048 156.706 6.792 155.65 6.664C154.626 6.504 153.586 6.44 152.53 6.472V12.136L158.002 11.8V17.704L152.53 17.608V29.992C152.53 30.664 152.578 31.112 152.674 31.336C152.77 31.56 153.042 31.8 153.49 32.056L156.466 33.688L156.322 37H141.25L141.106 32.584ZM171.557 37.576C167.813 37.576 164.917 36.44 162.869 34.168C160.853 31.896 159.845 28.76 159.845 24.76C159.845 21.976 160.341 19.592 161.333 17.608C162.325 15.592 163.733 14.056 165.557 13C167.381 11.944 169.509 11.416 171.941 11.416C175.557 11.416 178.325 12.568 180.245 14.872C182.197 17.176 183.125 20.456 183.029 24.712L168.437 27.4C168.885 28.744 169.509 29.736 170.309 30.376C171.141 30.984 172.229 31.288 173.573 31.288C174.501 31.288 175.605 31.16 176.885 30.904C178.165 30.616 179.461 30.232 180.773 29.752L181.877 34.504C180.693 35.4 179.157 36.136 177.269 36.712C175.381 37.288 173.477 37.576 171.557 37.576ZM175.157 20.68C175.093 19.464 174.741 18.584 174.101 18.04C173.493 17.464 172.629 17.176 171.509 17.176C170.581 17.176 169.701 17.304 168.869 17.56C168.197 19.128 167.893 20.824 167.957 22.648L175.157 20.68ZM197.948 37.576C194.204 37.576 191.308 36.44 189.26 34.168C187.244 31.896 186.236 28.76 186.236 24.76C186.236 21.976 186.732 19.592 187.724 17.608C188.716 15.592 190.124 14.056 191.948 13C193.772 11.944 195.9 11.416 198.332 11.416C201.948 11.416 204.716 12.568 206.636 14.872C208.588 17.176 209.516 20.456 209.42 24.712L194.828 27.4C195.276 28.744 195.9 29.736 196.7 30.376C197.532 30.984 198.62 31.288 199.964 31.288C200.892 31.288 201.996 31.16 203.276 30.904C204.556 30.616 205.852 30.232 207.164 29.752L208.268 34.504C207.084 35.4 205.548 36.136 203.66 36.712C201.772 37.288 199.868 37.576 197.948 37.576ZM201.548 20.68C201.484 19.464 201.132 18.584 200.492 18.04C199.884 17.464 199.02 17.176 197.9 17.176C196.972 17.176 196.092 17.304 195.26 17.56C194.588 19.128 194.284 20.824 194.348 22.648L201.548 20.68Z" fill="white"/>
</svg>
