<svg width="106" height="20" viewBox="0 0 106 20" fill="none" xmlns="http://www.w3.org/2000/svg">
<path d="M6.13728 19.288C4.37728 19.288 2.59328 19.016 0.785281 18.472C0.865281 16.888 0.993281 15.416 1.16928 14.056L3.01728 13.696L4.21728 15.736C5.17728 16.072 6.02528 16.24 6.76128 16.24C7.01728 16.24 7.56128 16.168 8.39328 16.024C8.42528 15.704 8.44128 15.488 8.44128 15.376C8.44128 14.992 8.37728 14.704 8.24928 14.512C8.12128 14.304 7.84128 14.08 7.40928 13.84C6.97728 13.584 6.20128 13.208 5.08128 12.712C3.70528 12.04 2.71328 11.32 2.10528 10.552C1.49728 9.768 1.19328 8.848 1.19328 7.792C1.19328 6.144 1.75328 4.856 2.87328 3.928C3.99328 3 5.52928 2.536 7.48128 2.536C8.42528 2.536 9.36128 2.632 10.2893 2.824C11.2333 3 12.0573 3.248 12.7613 3.568C12.7293 4.464 12.6573 5.576 12.5453 6.904L12.4733 7.936L10.7213 8.2L8.89728 5.872C8.32128 5.696 7.60128 5.608 6.73728 5.608C6.19328 5.608 5.78528 5.656 5.51328 5.752C5.43328 6.072 5.39328 6.32 5.39328 6.496C5.39328 6.848 5.48128 7.16 5.65728 7.432C5.83328 7.688 6.14528 7.96 6.59328 8.248C7.04128 8.52 7.70528 8.864 8.58528 9.28C9.86528 9.888 10.8333 10.424 11.4893 10.888C12.1453 11.352 12.6013 11.84 12.8573 12.352C13.1293 12.848 13.2653 13.456 13.2653 14.176C13.2653 15.76 12.6333 17.008 11.3693 17.92C10.1053 18.832 8.36128 19.288 6.13728 19.288ZM19.7616 19.312C18.3536 19.312 17.3136 18.968 16.6416 18.28C15.9696 17.576 15.6336 16.512 15.6336 15.088V9.256H13.9536V7.504L18.2736 3.568L19.6656 3.736V6.448H23.6976V9.28H19.6656V14.224C19.6656 14.992 19.7696 15.504 19.9776 15.76C20.2016 16.016 20.6256 16.144 21.2496 16.144C21.7776 16.144 22.5136 16.072 23.4576 15.928L23.7456 18.376C23.1696 18.648 22.5216 18.872 21.8016 19.048C21.0976 19.224 20.4176 19.312 19.7616 19.312ZM28.498 19.312C27.41 19.312 26.538 19.016 25.882 18.424C25.226 17.816 24.898 17.04 24.898 16.096C24.898 14.832 25.53 13.84 26.794 13.12C28.074 12.4 29.93 11.992 32.362 11.896C32.362 11.144 32.298 10.592 32.17 10.24C32.058 9.872 31.842 9.624 31.522 9.496C31.218 9.352 30.746 9.28 30.106 9.28C29.45 9.28 28.986 9.304 28.714 9.352L27.73 11.296L25.954 11.176C25.682 9.896 25.49 8.568 25.378 7.192C26.274 6.888 27.25 6.648 28.306 6.472C29.378 6.296 30.378 6.208 31.306 6.208C33.002 6.208 34.218 6.544 34.954 7.216C35.69 7.872 36.058 8.968 36.058 10.504V15.52C36.058 15.808 36.082 16.008 36.13 16.12C36.194 16.232 36.322 16.344 36.514 16.456L37.474 17.008L37.378 18.496C35.522 18.928 34.058 19.168 32.986 19.216C32.954 19.12 32.906 18.952 32.842 18.712C32.778 18.456 32.722 18.216 32.674 17.992C32.05 18.392 31.362 18.712 30.61 18.952C29.874 19.192 29.17 19.312 28.498 19.312ZM30.106 16.6C30.746 16.6 31.522 16.384 32.434 15.952L32.338 14.128C31.954 14.096 31.698 14.08 31.57 14.08C31.138 14.08 30.634 14.128 30.058 14.224C29.482 14.304 29.026 14.4 28.69 14.512C28.642 14.72 28.618 14.912 28.618 15.088C28.618 15.568 28.746 15.944 29.002 16.216C29.274 16.472 29.642 16.6 30.106 16.6ZM38.331 16.72L39.819 16.288V10.456C39.819 10.104 39.795 9.88 39.747 9.784C39.699 9.672 39.571 9.552 39.363 9.424L38.307 8.848L38.379 7.048L39.027 6.928C40.995 6.528 42.451 6.312 43.395 6.28C43.523 6.616 43.627 6.96 43.707 7.312C44.571 6.912 45.307 6.632 45.915 6.472C46.539 6.296 47.107 6.208 47.619 6.208C48.243 6.208 48.827 6.328 49.371 6.568C49.915 6.792 50.323 7.096 50.595 7.48C51.507 7.032 52.323 6.712 53.043 6.52C53.779 6.312 54.475 6.208 55.131 6.208C56.443 6.208 57.411 6.584 58.035 7.336C58.659 8.088 58.971 9.232 58.971 10.768V15.496C58.971 15.832 58.995 16.056 59.043 16.168C59.091 16.28 59.227 16.4 59.451 16.528L60.603 17.2L60.507 19H53.979L53.859 16.72L55.011 16.384V11.848C55.011 11.16 54.987 10.672 54.939 10.384C54.907 10.08 54.779 9.848 54.555 9.688C54.331 9.512 53.955 9.424 53.427 9.424C53.011 9.424 52.315 9.496 51.339 9.64C51.371 9.896 51.387 10.272 51.387 10.768V15.496C51.387 15.832 51.411 16.056 51.459 16.168C51.507 16.28 51.651 16.4 51.891 16.528L53.067 17.2L52.971 19H46.395L46.275 16.72L47.427 16.384V11.848C47.427 11.144 47.403 10.648 47.355 10.36C47.323 10.056 47.195 9.824 46.971 9.664C46.747 9.504 46.379 9.424 45.867 9.424C45.307 9.424 44.627 9.496 43.827 9.64V15.496C43.827 15.832 43.851 16.056 43.899 16.168C43.947 16.28 44.075 16.4 44.283 16.528L45.459 17.2L45.363 19H38.451L38.331 16.72ZM61.4398 16.792L63.1198 16.288V9.256L61.4398 9.232V6.88L63.1198 6.784V5.224C63.1198 3.768 63.5438 2.64 64.3918 1.84C65.2398 1.04 66.4718 0.639999 68.0878 0.639999C68.9198 0.639999 69.9278 0.743999 71.1118 0.951999L70.5598 4.216C69.8558 4.024 69.2398 3.896 68.7118 3.832C68.1998 3.752 67.6798 3.72 67.1518 3.736V6.568L69.8878 6.4V9.352L67.1518 9.304V15.496C67.1518 15.832 67.1758 16.056 67.2238 16.168C67.2718 16.28 67.4078 16.4 67.6318 16.528L69.1198 17.344L69.0478 19H61.5118L61.4398 16.792ZM71.1664 16.792L72.8464 16.288V9.256L71.1664 9.232V6.88L72.8464 6.784V5.224C72.8464 3.768 73.2704 2.64 74.1184 1.84C74.9664 1.04 76.1984 0.639999 77.8144 0.639999C78.6464 0.639999 79.6544 0.743999 80.8384 0.951999L80.2864 4.216C79.5824 4.024 78.9664 3.896 78.4384 3.832C77.9264 3.752 77.4064 3.72 76.8784 3.736V6.568L79.6144 6.4V9.352L76.8784 9.304V15.496C76.8784 15.832 76.9024 16.056 76.9504 16.168C76.9984 16.28 77.1344 16.4 77.3584 16.528L78.8464 17.344L78.7744 19H71.2384L71.1664 16.792ZM86.3918 19.288C84.5198 19.288 83.0718 18.72 82.0478 17.584C81.0398 16.448 80.5358 14.88 80.5358 12.88C80.5358 11.488 80.7838 10.296 81.2798 9.304C81.7758 8.296 82.4798 7.528 83.3918 7C84.3038 6.472 85.3678 6.208 86.5838 6.208C88.3918 6.208 89.7758 6.784 90.7358 7.936C91.7118 9.088 92.1758 10.728 92.1278 12.856L84.8318 14.2C85.0558 14.872 85.3678 15.368 85.7678 15.688C86.1838 15.992 86.7278 16.144 87.3998 16.144C87.8638 16.144 88.4158 16.08 89.0558 15.952C89.6958 15.808 90.3438 15.616 90.9998 15.376L91.5518 17.752C90.9598 18.2 90.1918 18.568 89.2478 18.856C88.3038 19.144 87.3518 19.288 86.3918 19.288ZM88.1918 10.84C88.1598 10.232 87.9838 9.792 87.6638 9.52C87.3598 9.232 86.9278 9.088 86.3678 9.088C85.9038 9.088 85.4638 9.152 85.0478 9.28C84.7118 10.064 84.5598 10.912 84.5918 11.824L88.1918 10.84ZM99.5871 19.288C97.7151 19.288 96.2671 18.72 95.2431 17.584C94.2351 16.448 93.7311 14.88 93.7311 12.88C93.7311 11.488 93.9791 10.296 94.4751 9.304C94.9711 8.296 95.6751 7.528 96.5871 7C97.4991 6.472 98.5631 6.208 99.7791 6.208C101.587 6.208 102.971 6.784 103.931 7.936C104.907 9.088 105.371 10.728 105.323 12.856L98.0271 14.2C98.2511 14.872 98.5631 15.368 98.9631 15.688C99.3791 15.992 99.9231 16.144 100.595 16.144C101.059 16.144 101.611 16.08 102.251 15.952C102.891 15.808 103.539 15.616 104.195 15.376L104.747 17.752C104.155 18.2 103.387 18.568 102.443 18.856C101.499 19.144 100.547 19.288 99.5871 19.288ZM101.387 10.84C101.355 10.232 101.179 9.792 100.859 9.52C100.555 9.232 100.123 9.088 99.5631 9.088C99.0991 9.088 98.6591 9.152 98.2431 9.28C97.9071 10.064 97.7551 10.912 97.7871 11.824L101.387 10.84Z" fill="#FF8E29"/>
</svg>
